<?xml version="1.0" encoding="UTF-8"?>
<svg id="Ebene_1" xmlns="http://www.w3.org/2000/svg" version="1.1" viewBox="0 0 300 300">
  <!-- Generator: Adobe Illustrator 30.3.0, SVG Export Plug-In . SVG Version: 2.1.3 Build 182)  -->
  <path d="M249.61,52.69l-2.99-7.92-2.8-5.41-1.87-2.83-2.45-3.62-2.8-4.07c-1.59-2.31-4.44-4.03-7.27-4.41l-5.63-.04-6.52.7-4.71.67-13.9,1.96-5.2,1.19-9.28,2.51-11.86,3.87-3.41,1.17-4.02,1.68-9.29,4.27-5.24,2.63-7.09,4.42c-2.59,1.62-5.27,3.51-7.36,5.69l-6.35,6.59-4.08,4.53-1.66,1.46c3.98,1.56,8.02,3.12,12.38,3.87l4.79.46c3.22.31,6.45-.17,9.58.56l9.5,2.19,5.53,2.35c2.01.85,4.02,3.02,4.72,5.16l-1.51,1.91-1.69,8.41-1.8,4.12-.85,3.05c-.55,1.98-1.44,3.66-2.48,5.43l-2.64,4.51-2.6,4.19-1.76,3.21-3.04,5.86-2.95,6.35c-.67,1.43-1.13,2.6-1.81,4.04l-2.82,5.96-3.69,8.51-1.56,2.66-1.2,2.02-2.57,4.89-4.29,8.29c-.48.92-.71,2.64-1.92,3.03-.86.28-2.84-.28-3.81-.27l-3.8,3.32c-3.45,3.02-7.41,3.92-11.95,3.04l-2.88-.56c-1.55-.3-2.97-.61-4.23-1.51l-4.59-3.27-4.43-4.16c-3.84-3.61-7.05-8.87-6.76-14.09.42-7.62,4.66-16.07,8.89-22.52,1.21-1.84,2.31-3.87,4-5.26l3.34-2.73,3.37-2.17c.35-.23,1.12-.09,1.76.1,1.1.33,2.61-.52,3.79-.7,2.19-.34,4.47.24,6.69.6l5.17.83,4.2,1.62,4.84,2.61c.45.24,1.76.56,1.97.08l2.3-5.34,3.62-7.73,3.52-6.48,5.78-10.97c1.54-2.93,4.29-12.5,2.48-12.48-3.38.05-6.88-.35-10.1-1.27l-10.63-3.01-8.29-3.08-3.08-.86c-1.68,1.45-2.51,3.36-3.73,5.17l-3.87,5.75-1.93,3.08-1.94,5.2-2.62,5.53-1.25,3.8-2.09,4.81-4.88,9.61-3.7,6.67-1.98,4.13-3.93,6.02-2.79,3.58-5.79,8.54-3.13,4.35-5.06,7.8-2.01,3.71c-1.4,2.58-2.49,5.05-3.18,7.96-.33,1.38-.89,3.44-.13,4.68l2.32,3.76c.29.47,1.62.79,2.18,1.02l7.06,2.94c5.95,3.55,13.43,10.12,15.29,16.68,1.11,3.93-.49,7.92-1.53,11.63l-1.49,5.35-1.27,3.82-1.71,5.55c-.23.76-.93,1.88-1.52,2.56l-3.97,4.66-1.77,2.2c-.55.69-.44,1.77.04,2.56,2.95,4.86,5.02,9.86,6.37,15.43.2.82-.19,2.68-.8,3.17l-1.61,1.3-2.97,3.15c-.92.98.01,6.21,2.61,9.43l8.59,10.65c1.63,2.02-3.89,3.26-8.53,3.22-3.19-.03-5.4.02-6.93-2.72-2.49-4.44-5.35-8.23-8.45-12.3-.6-.97-1.39-3.28-1.41-4.41l-.06-4.5c-.06-4.74,4.14-5.62,6.69-8.93.25-2.9-.93-5.54-2.28-7.88l-2.48-4.29-2.61-3.78c-1.01-1.47.25-3.45,1.2-4.53l3.06-3.46c1.41-1.59,3.16-3.38,3.84-5.39l3.08-9.14,2.34-8.3.72-4.72c.54-3.54-1.68-5.61-4.15-7.82l-4.16-3.73c-4.43-3.97-10.7-3.12-16.88-8.79-1.71-1.57-3.41-3.5-3.62-5.98-.15-1.76.1-4.32.83-5.83l2.46-5.1,3.34-6.23,3.18-5.06,2.65-3.79.93-1.58,4.3-6.04,1.81-2.83,3.37-5.6,2.31-2.94,2.23-3.13,2.32-4.42,4.43-8.44,3.15-5.46c1.31-2.28,1.97-4.96,2.97-7.41l.91-2.23,3.07-7.67,3.39-8.52c.88-2.21,2.7-4.52,4.19-6.36.91-1.12,2.26-1.61,3.09-3.36-1.39-.57-3.01-.91-4.74-1.09l-4.93-.51c-.91-.09-2.02.05-2.5.77l-2.2,3.27-5.44,8.82c-1.33,2.15-2.03,4.43-2.78,6.93-.66,2.22-1.99,4.31-3.3,6.28l-5.41,8.12-4.6,7.56-2.9,4.64c-.7,1.12.18,3.13.84,4.15,1.05,1.63.29,2.3.69,5.32.25,1.87.02,3.68-.99,5.26l-6.56,10.23-3.29,5.97-1.7,3.66-2.23,3.56c-1.17,1.87-3.82,3.06-6.19,3.12-4.53.11-10.71-2.08-14.67-4.62l-1.95-1.25-5.1-4.94-2.11-2.84c-3.52-4.74-1.23-15.62,2.6-20.88l5.56-7.64c1.96-2.69,4.77-4.24,7.36-6.23,2.05-1.57,2.09-5.36,6.38-4.29l4.11,1.03c2.09.52,4.12,1.25,6.33,1.07.92-2.74,2.68-4.33,4.13-6.45l7.08-10.41c1.22-1.79,2.25-3.72,2.83-5.76.76-2.7,1.67-5.21,3.12-7.56l5.85-9.47,3.65-5.32,3.48.12c4.13.14,8.08.64,12.11,1.51l10.03,2.18c1.2.26,2,.34,2.91-.64l5.46-5.92,4.56-4.7,3.42-3.03,4.97-3.97,3.86-2.91c2.15-1.62,4.11-3.02,6.56-4.16l9.99-4.61,6.82-2.83,3.12-1.16,9.37-3.08,6.01-1.84,5.64-1.55c6.69-1.84,13.52-2.48,20.44-3.25l4.29-.48,9.4-.92,6.91.11c3.97.06,7.4.73,11.03,2.13l5.67,2.19,7.32,3.75c2.16,1.11,4.36,2.54,5.83,4.51l4.85,6.54,1.82,2.84,4.31,7.42,2.16,5.31,1.02,2.93,1.92,5.95,2.15,6.78c1.22,3.85,1.67,7.72,2.17,11.7l.77,3.53,1.38,10.76,1.27,6.94c.28,1.51-.05,2.91-.01,4.5l.08,3.15.94,17.87.11,6.78.02,5.01c.01,3.4.33,7.02-.85,10.18l-1.41,3.78-3.59,15.04-4.68,18.14-1.92,5.2-.84,3.07-1.12,3.18-8.38,20.81-1.4,2.5-2.65,4.53-7.72,13.35-2.05,2.55-2.93,3.89-2.18,2.82-3.15,3.6-4.23,5.45-7.15,8.52-3.76,3.76-1.98,1.94-5.34,5.35c-2.24,2.25-4.78,3.59-8.23,2.96-6.04-1.12-11.58-3.83-16.93-6.88-1.39-.8-3.11-1.48-4.14-2.61l-1.91-2.08-6.2-5.67c-.84-.77-4.89-3.91-5.01-4.18l-5.89-13.06c-.89-1.96-1.44-4.68-1.79-6.67,0,0-.6-5.93-.92-7.67l-1.07-5.76-.6-2.21-1.84-3.18c-.78-3.57-1.31-7.13-1.55-10.79l-.58-8.85-.47-7.43-.25-3.26.09-9.3.16-17.62.42-2.02.59-6.52,1.81-8.65,3.06-10.46,1.82-3.9,1.94-3.82c2.13-4.2,4.83-8.06,7.88-11.64l7.07-8.31,6.57-6.28c1.09-1.04,2.93-1.61,4.42-1.95l6.65-1.55c11.68-2.72,19.86-.58,30.09,4.74,3.62,1.88,5.93,4.74,8.12,8.02.5.76.72,1.21,1.04,2.15l3.88,11.12,1.05,3.51.81,4.63.76,8.6c.46,5.19.17,10.08-.61,15.24l-1.25,8.32-.27,3.28-1.35,12.98c-.97,5.28-2.16,10.27-3.96,15.32-.42,1.19-1.44,2.17-2.12,3.24l-1.37,2.16c-.56.88-1.21,1.38-1.65,2.31l-2.92,6.06c-.71,1.48-1.88,3.24-2.97,4.4l-2.12,2.24c-1.46,1.55-2.78,3.56-4.76,4.36l-2.92,1.18c-.89.36-2.64.88-3.59.85l-7.87-.28-7.08.3c-3.27.14-6.14-1.2-8.32-3.35l-3.07-3.01-3.23-3.55c-1.39-1.53-2.61-2.52-3.25-4.69l-1.94-6.57c-.77-2.6-1.13-5.21-1.14-7.94l-.02-4.3.2-8.21c.09-3.56-.68-7.06-.16-10.58.52-3.5,1.21-6.85,2.32-10.13l1.82-5.4c.84-2.48,1.49-4.75,1.95-7.41.91-5.3,3.16-9.76,6.81-13.71,1.29-1.4,3.7-1.31,5.46-1.7,1.31-.29,2.91-1.15,4.26-.96,4.64.65,8.71,2.28,12.92,4.21,2.45,1.13,5.07,2.59,6.06,5.31.42,1.17.36,3.1.45,4.44.26,2.99.32,5.83-.04,8.79.52,3.97.3,7.84-.18,11.8l-.61,5c-.82,6.77-1.96,12.89-6.19,18.43-.72.95-1.86,1.03-3.02,1.26-1.33.27-2.92,1.11-4.27.93-1.02-.14-2.59-.33-3.26-.71l-2.3-1.3c-2.01-1.14-3.05-3.38-4.25-5.33v-.37c6.04-1.2,7.52-10.03,8.4-16.1l.42-2.87c.57-3.95.93-7.85.85-11.85l-.17-8.18-.44-6.01c-.03-.48-.92-1.18-1.34-1.18-.55,0-.95,1.06-1.24,1.48-2.43,3.44-2.95,7.06-4.22,10.99l-2.33,7.17c-1.26,3.88-2.73,7.34-3.03,11.56l-.78,4.51c.35,4.71.81,8.97.11,13.62l-.52,3.49c-.23,1.51-.05,3.24.27,4.78l1.37,6.56c.16.78.22,2.31.62,2.96.74,1.21,1.38,2.54,1.87,3.84l1.65,4.41,1.14,2.5c1.77,0,4.34.47,5.94-.12,3.66-1.34,6.37-4.42,8.41-7.57l1.54-2.37,5.19-11.66c1.93-4.33,3.28-8.96,4.4-13.52l.14-1.94,1.59-9.77,2-18.72.91-6.43c.22-1.54.1-3.09-.04-4.65l-1.21-13.91-1.66-5.82-4.26-12.15c-.85-2.41-2.92-3.97-5.57-4.22-3.79-.35-7.69-.06-11.38,1.18-1.57.53-3.1,2.01-4.23,3.19l-5.09,5.28-2.69,3.04-2.84,2.89-2.79,3.21-2.84,3.38c-.36.43-.7,1.44-1.07,2.13l-2.28,4.32-1.67,1.69-1.35,3.3-1.57,4.13c-1.7,5.93-3.18,11.83-3.65,18.02l-.35,4.66v29.51s.57,6.51.57,6.51l.15,2.86.91,10.79,1.11,5.74.42,3.39c.01.09-.19.5-.26.56-1.42,1.17-.15,2.63-.01,3.64l.72,5.36,1.12,4.45,1.25,4.21,2.3,5.95,2.43,5.1,2.19,4.26,2.79,5.02c2.05,3.68,5.58,8.46,8.99,10.31l4.53,2.48,6.58-6.9,2-1.9,2.45-2.54,5.72-6.41,7.75-10.41,7.84-12.17,4.59-7.91,2.68-4.83,1.78-3.23,1.86-3.49,2.87-6.4,2.15-5.37,3.97-10.62,2.8-8.94,5.16-20.59,1.6-7.41,1.48-8.87.62-7.5.02-5,.04-6.8.31-4.62-.6-15.51-.83-6.96-1.15-5.98-2.89-16.76c-1.35-7.82-3.04-15.25-5.88-22.77ZM42.51,145.41l-3.55-1.95-1.88-1.92-2.29-2.5c-.26-.28-.94-.65-1.32-.59s-.86,1.16-.69,1.57l1.91,4.44c1.9,2.15,4.22,3.38,7.07,2.97.72-.1,1.31-1.7.74-2.02ZM117.69,163.47c-.69-.78-1.26-1.29-1.67-1.39l-4.49-1.09c-1.2-.29-2.97-1.31-4.04-2.14l-2.2-1.7-2.75-2.6-3.65-3.07c-.45,2.39.58,5.32,1.8,7.29l1.93,3.14,1.66,2.58c1.05,1.62,2.42,2.75,4.34,2.91,1.21.75,2.28.23,3.35-.42l5.71-3.51Z"/>
</svg>